<?xml version="1.0" standalone="yes"?>
<svg xmlns="http://www.w3.org/2000/svg" width="822" height="844">
<path style="fill:#17a2b8; stroke:none;" d="M617 14.4359C599.381 16.6861 583.178 25.6557 567 32.5747C538.312 44.8439 504.076 54.5677 482.197 78.0271C467.121 94.1924 457.533 114.14 446.393 133C425.631 168.15 405.551 203.715 385.019 239C373.811 258.262 362.755 277.638 351.716 297C347.298 304.75 342.758 317.586 335.569 323.057C330.885 326.621 322.613 327.396 317 328.891C302.994 332.62 288.991 336.374 275 340.158C239.045 349.883 202.056 357.022 175.06 385.01C164.878 395.567 157.999 408.484 150.607 421C144.411 431.49 132.477 445.738 131.145 458C129.49 473.24 140.261 479.581 152 486.284C171.732 497.55 191.28 509.138 211 520.425C285.822 563.253 360.133 606.972 435 649.716C453.732 660.411 472.271 671.445 491 682.147C499.112 686.782 508.06 694.122 518 692.494C532.462 690.124 538.224 674.344 544.716 663C561.388 633.867 578.033 604.969 574.804 570C571.884 538.387 559.763 507.62 551.951 477C549.497 467.381 541.477 451.812 543.632 442C545.301 434.403 551.742 426.697 555.575 420C564.371 404.632 573.361 389.375 582.147 374C604.68 334.564 627.789 295.458 650.284 256C662.69 234.238 677.971 212.861 683.325 188C688.31 164.85 684.641 142.139 681.705 119C676.669 79.3002 677.05 6.76648 617 14.4359M417 606C400.046 600.287 383.402 587.704 368 578.607C332.313 557.528 296.379 533.879 259 516C304.396 431.727 355.169 350.084 402.716 267C422.986 231.58 443.464 196.277 463.981 161C474.756 142.473 484.158 122.089 497.139 105C519.094 76.0977 563.794 65.1989 596 51.4253C609.61 45.6046 624.514 37.7153 637.989 48.4504C650.69 58.5692 649.941 79.1741 651.112 94C653.996 130.543 666.93 168.202 649.241 203C631.192 238.504 609.433 272.56 589.432 307C531.79 406.257 470.808 504.625 417 606M533.003 144.73C523.273 147.868 521.424 160.724 528.287 167.624C539.517 178.915 559.173 186.411 573 194.283C578.837 197.607 585.185 200.7 591.997 198.02C601.198 194.401 602.434 181.866 595.811 175.259C584.668 164.143 565.651 156.925 552 149.147C546.124 145.799 539.961 142.486 533.003 144.73M318 358C292.252 406.51 261.75 452.486 236 501C210.451 488.779 187.553 471.223 162 459C173.342 437.946 184.951 414.294 203 398.207C223.72 379.739 252.011 375.03 278 368.109C290.978 364.653 304.618 359.246 318 358M523 477C530.798 513.769 550.532 552.789 545.685 591C542.429 616.664 526.885 640.73 513 662C488.193 651 462.732 634.84 440 620C453.791 588.893 474.475 559.432 491.568 530C501.411 513.05 509.913 491.593 523 477M161 541.46C117.773 548.129 116.128 596.593 115.999 631C115.937 647.631 109.193 676.974 137 672.74C146.013 671.368 154.634 663.305 162 658.326C182.364 644.561 210.895 631.441 218.184 606C228.359 570.482 197.332 535.855 161 541.46M144 634C144 618.515 141.428 591.075 150.72 578.011C165.734 556.901 193.991 573.921 189.494 597C186.472 612.511 157.29 627.512 144 634M259 600.46C200.565 609.454 200.419 672.636 199.027 719C198.478 737.306 188.353 778.889 220 774.773C231.594 773.265 243.493 761.679 253 755.333C281.047 736.611 321.043 718.769 331.073 684C343.857 639.683 305.979 593.23 259 600.46M226 739C226.002 720.969 229.072 702.994 229.941 685C230.546 672.46 229.671 658.089 236.506 647C253.105 620.068 302.103 625.456 305.855 660C309.266 691.411 275.927 706.278 254 720.997C244.964 727.063 235.995 734.644 226 739M373 664.495C327.679 672.524 332.52 718.347 328.695 753C326.88 769.447 322.948 799.216 349 795.772C358.844 794.471 368.084 785.495 376 780.035C396.461 765.92 424.009 754.012 430.973 728C440.467 692.535 409.549 658.021 373 664.495M357 757C359.096 740.946 355.508 719.919 362.156 705C370.43 686.435 397.743 688.633 403.298 708C409.576 729.889 374.354 751.077 357 757z"/>
</svg>
